<?xml version="1.0" standalone="no"?>
<!DOCTYPE svg PUBLIC "-//W3C//DTD SVG 20010904//EN"
 "http://www.w3.org/TR/2001/REC-SVG-20010904/DTD/svg10.dtd">
<svg version="1.0" xmlns="http://www.w3.org/2000/svg"
 width="512.000000pt" height="512.000000pt" viewBox="0 0 512.000000 512.000000"
 preserveAspectRatio="xMidYMid meet">
<metadata>
Created by potrace 1.11, written by Peter Selinger 2001-2013
</metadata>
<g transform="translate(0.000000,512.000000) scale(0.100000,-0.100000)"
fill="#000000" stroke="none">
<path d="M2295 4948 c-44 -5 -145 -22 -224 -38 -878 -181 -1583 -841 -1826
-1709 -29 -105 -61 -276 -74 -391 -11 -104 -11 -399 -1 -495 66 -580 320
-1097 734 -1493 308 -293 716 -514 1114 -602 104 -23 112 -24 277 -48 103 -15
504 -7 620 12 366 59 712 195 999 393 183 126 385 313 521 483 231 287 412
676 479 1030 38 198 44 266 44 465 -1 286 -34 501 -118 757 -202 615 -646
1122 -1232 1407 -184 90 -407 166 -573 196 -186 33 -227 37 -435 40 -124 1
-261 -1 -305 -7z"/>
</g>
</svg>
