<?xml version="1.0" encoding="utf-8"?>
<!-- Generator: Adobe Illustrator 23.0.2, SVG Export Plug-In . SVG Version: 6.00 Build 0)  -->
<svg version="1.1" id="Layer_1" xmlns="http://www.w3.org/2000/svg" xmlns:xlink="http://www.w3.org/1999/xlink" x="0px" y="0px"
	 viewBox="0 0 720 720" style="enable-background:new 0 0 720 720;" xml:space="preserve">
<style type="text/css">
	.st0{fill:#FFFFFF;}
	.st1{fill:#1E1B1C;}
	.st2{fill:#FBAA22;}
	.st3{fill:url(#SVGID_1_);}
	.st4{fill:#C1278B;stroke:#231F20;stroke-miterlimit:10;}
	.st5{fill:url(#SVGID_2_);stroke:#231F20;stroke-miterlimit:10;}
	.st6{fill:#4893CF;stroke:#231F20;stroke-miterlimit:10;}
	.st7{fill:#231F20;}
</style>
<g>
	<g>
		<path class="st0" d="M428.1,342.7c5.2-2.4,11.3-5.2,17.4-8.1c0.1,0,4.5-1.4,4.4-1.5c-5.5-1.9-15.4-3.9-21.1-4.6
			c-6.6-0.8-12.7-1.4-19.4-1.4c-4.7,0-10.7-0.1-15.4,0c-17.6,0-23.6,2.7-23.6,2.7c-6.8,3.5-14.5,17.7-14.5,17.7
			c5.1,3.3,12.2,7.4,17.3,10.7c3.6,2.4,11.8,9.2,14.8,12.4l4.3-3.9c4.5-4.4,9-7.9,13.9-11.6c4.1-3.1,8.6-5.5,13-8.1
			C421.8,345.6,424.5,344.5,428.1,342.7z"/>
		<path class="st1" d="M394.1,327.1c-0.1,0-0.3,0-0.4,0c-17.3,0-23.2,2.7-23.2,2.7c-6.8,3.5-14.5,17.7-14.5,17.7
			c5.1,3.3,12.2,7.4,17.3,10.7c3.6,2.4,11.8,9.2,14.8,12.4l4.3-3.9c4.5-4.4,9-7.9,13.9-11.6c4.1-3.1,8.6-5.5,13-8.1
			c2.5-1.5,5.3-2.6,8.9-4.4c5.2-2.4,11.3-5.2,17.4-8.1c0.1,0,4.5-1.4,4.4-1.5c-5.5-1.9-15.4-3.9-21.1-4.6
			c-6.6-0.8-12.7-1.4-19.4-1.4c-3.1,0-6.8,0-10.3,0C397.4,327.1,395.7,327.1,394.1,327.1"/>
	</g>
</g>
<polygon class="st2" points="324.3,329.9 366.8,327.1 357.8,339 352.6,347.6 "/>
<linearGradient id="SVGID_1_" gradientUnits="userSpaceOnUse" x1="327.4514" y1="306.1702" x2="365.4048" y2="376.4957" gradientTransform="matrix(1 0 0 -1 0 720)">
	<stop  offset="0" style="stop-color:#C1278B"/>
	<stop  offset="0.1025" style="stop-color:#C94585"/>
	<stop  offset="0.2843" style="stop-color:#D66876"/>
	<stop  offset="0.4593" style="stop-color:#E28065"/>
	<stop  offset="0.6229" style="stop-color:#EB9150"/>
	<stop  offset="0.7723" style="stop-color:#F39E3A"/>
	<stop  offset="0.9028" style="stop-color:#F8A729"/>
	<stop  offset="1" style="stop-color:#FBAA22"/>
</linearGradient>
<polygon class="st3" points="371.2,327.1 360.7,334.8 347,360.2 337.2,382.3 313.2,415.6 324.9,415.6 363.7,371.3 373.3,335.9 "/>
<path class="st4" d="M372.9,327.1c3.5,8.1,12.1,36.9-20.3,76.1l-31.3,12.5c0,0,50-49.2,50.4-88.6
	C371.8,326.2,372.2,325.6,372.9,327.1z"/>
<linearGradient id="SVGID_2_" gradientUnits="userSpaceOnUse" x1="369.5168" y1="381.2429" x2="368.6962" y2="313.1356" gradientTransform="matrix(1 0 0 -1 0 720)">
	<stop  offset="0" style="stop-color:#66C9D4"/>
	<stop  offset="0.1986" style="stop-color:#5BB4D2"/>
	<stop  offset="0.43" style="stop-color:#51A2D0"/>
	<stop  offset="0.633" style="stop-color:#4B97CF"/>
	<stop  offset="0.7844" style="stop-color:#4893CF"/>
</linearGradient>
<path class="st5" d="M371.9,327c5,7,17.7,28.9,5.2,60c-0.5,1.1-4.3,4.6-4.3,4.6l-17.2,7.2c0,0,26.6-43,15.6-71.8
	C370.8,326.3,370.8,325.4,371.9,327z"/>
<path class="st6" d="M371.2,327.1c0,0,22.7,13.5,18.5,46.9l-12.5,10.6C377.1,384.6,387.3,345,371.2,327.1z"/>
<g>
	<g>
		<path class="st0" d="M272.6,321c6.8-0.4,10.8-0.6,17.7-0.9c2.8-0.1,5.6,0.1,8.4,0.2c0.7,0,3.3-0.2,4.1-0.2c-0.6-0.9-2.8-2-3.5-2.7
			c-4.6-3.6-9.2-7.1-13.9-10.4c-2.3-1.6-4.5-2.7-6.9-4.2c-2.2-1.4-5.4-3.5-7.4-5.2c-0.2-0.1,0.4-0.3,0.5-0.3c0.5-0.1,1-0.3,1.4-0.1
			c8.6,3.6,17.1,7.5,25.8,10.9c8.3,3.3,16.7,6.6,25.3,9.2c6.1,1.8,12.7,2.5,19,3.6c6.9,1.2,13.9,2.6,20.9,3.2
			c4.8,0.4,9.6-0.5,14.5-0.8c6.9-0.3,13.7-0.6,20.6-0.8c8.6-0.2,17.3-0.7,25.8-0.2c7.9,0.4,15.9,1.5,23.6,3.2
			c5.6,1.2,10.8,4,16.1,6.2c0.4,0.2,0.8,0.7,1.1,1c0,0-0.4,0.6-0.6,0.7c-8,3-16.2,5.6-23.9,9.2c-10.6,4.9-21.3,10-31.2,16.3
			c-6.9,5.5-11.5,10.4-17.3,15.6c-4.5,4-6.5,6.9-11,10.8c-3.8,3.4-9.8,8.4-13.9,11.3c-6.8,4.7-13.9,9-21.3,12.7
			c-7.9,3.9-16.2,7.2-24.6,10.3c-3.9,1.2-7,1.8-11.3,2.7c-1.5,0.3-4.8,1.2-5.9,0.6c-0.7-0.4,0.4-2.2,1.1-3c1.9-2.5,5-6.7,7.1-9.2
			c2.6-3.1,4.4-5.8,7-8.9c1.9-2.2,2.6-3.5,4.4-5.7c2-2.4,6-9,7.5-11.8c2.8-5.4,6.1-11,8.7-16.5c2.7-5.7,3.1-7.3,5.6-13
			c1.1-2.6,2.6-5.2,3.2-6.4c-1-1-10-5.8-12.3-6.7c-10.2-4.1-15.7-7.4-26.2-9.9c-12.3-2.9-25.1-3.5-37.7-5c-3.5-0.4-6.6-0.7-10-1.1
			c-1.2-0.2-6-0.4-7.1-1.4c0.9-0.3,5.2-1.4,6.2-1.6C264.6,322.2,270,321.6,272.6,321z M428.1,342.7c5.2-2.4,11.3-5.2,17.4-8.1
			c0.1,0,4.5-1.4,4.4-1.5c-5.5-1.9-15.4-3.9-21.1-4.6c-6.6-0.8-12.7-1.4-19.4-1.4c-4.7,0-10.7-0.1-15.4,0c-17.6,0-23.6,2.7-23.6,2.7
			c-6.8,3.5-14.5,17.7-14.5,17.7c5.1,3.3,12.2,7.4,17.3,10.7c3.6,2.4,11.8,9.2,14.8,12.4l4.3-3.9c4.5-4.4,9-7.9,13.9-11.6
			c4.1-3.1,8.6-5.5,13-8.1C421.8,345.6,424.5,344.5,428.1,342.7z M383.9,374.5c0,0-1.9-1.9-2.4-2.3c-4-3.6-8.1-7.2-12.2-10.6
			c-2.3-1.8-4.8-3.4-7.2-5c-2.4-1.6-3.8-2.7-6.3-4.1c-0.3-0.1-1.7-1.1-1.8-0.9c-2,4.2-4.3,9.2-6.1,13.5c-2.9,6.7-5.3,13.7-8.8,20
			c-4.7,8.3-10.4,16.1-15.5,24.1c-0.7,1.1-2.7,3.7-1.9,4c0.6,0.4,2.8-0.3,3.7-0.7c4.6-1.8,9.2-3.6,13.7-5.6c5.8-2.6,11.8-5,17.1-8.5
			c6.4-4.2,12.2-9.3,18.1-14.3C377.3,381.4,381.4,377,383.9,374.5z M331.4,333.2c5.5,3,11,6.1,16.5,9.1c1.4,0.8,3.5,2.3,3.9,1.9
			c4.8-6.5,6.1-9.5,10-12.7c0.4-0.5,1.9-1.6,1.9-1.6c-0.3,0-0.6-0.1-0.9-0.1c-10,0.8-20.1,1.6-31.7,2.5
			C330.8,332.4,330.5,332.7,331.4,333.2z"/>
	</g>
</g>
<path class="st7" d="M394.1,327.1c-0.1,0-0.3,0-0.4,0c-17.3,0-23.2,2.7-23.2,2.7c-6.8,3.5-14.5,17.7-14.5,17.7
	c5.1,3.3,12.2,7.4,17.3,10.7c3.6,2.4,11.8,9.2,14.8,12.4l4.3-3.9c4.5-4.4,9-7.9,13.9-11.6c4.1-3.1,8.6-5.5,13-8.1
	c2.5-1.5,5.3-2.6,8.9-4.4c5.2-2.4,11.3-5.2,17.4-8.1c0.1,0,4.5-1.4,4.4-1.5c-5.5-1.9-15.4-3.9-21.1-4.6c-6.6-0.8-12.7-1.4-19.4-1.4
	c-3.1,0-6.8,0-10.3,0C397.4,327.1,395.7,327.1,394.1,327.1 M351.6,344.3c0.1,0,0.1,0,0.2-0.1c4.8-6.5,6.1-9.5,10-12.7
	c0.4-0.5,1.9-1.6,1.9-1.6c-0.3,0-0.5-0.1-0.8-0.1h-0.1c-10,0.8-20.1,1.6-31.7,2.5c-0.3,0-0.7,0.4,0.3,0.9c5.5,3,11,6.1,16.5,9.1
	C349.2,343,351,344.3,351.6,344.3 M322.1,413.2c0.9,0,2.4-0.5,3.2-0.8c4.6-1.8,9.2-3.6,13.7-5.6c5.8-2.6,11.8-5,17.1-8.5
	c6.4-4.2,12.2-9.3,18.1-14.3c3.1-2.6,7.2-7,9.7-9.5c0,0-1.9-1.9-2.4-2.3c-4-3.6-8.1-7.2-12.2-10.6c-2.3-1.8-4.8-3.4-7.2-5
	c-2.4-1.6-3.8-2.7-6.3-4.1c-0.2-0.1-1.5-1-1.7-1l0,0c-2,4.2-4.3,9.2-6.1,13.5c-2.9,6.7-5.3,13.7-8.8,20
	c-4.7,8.3-10.4,16.1-15.5,24.1c-0.7,1.1-2.7,3.7-1.9,4C321.6,413.1,321.8,413.2,322.1,413.2 M394.1,328.1L394.1,328.1
	c1.4,0,3.1,0,5.1,0c1.8,0,3.7,0,5.6,0c1.7,0,3.3,0,4.8,0c7.1,0,13.5,0.7,19.3,1.4c5,0.6,12.5,2.1,18,3.6c-0.2,0-0.3,0.1-0.4,0.1
	c-1.1,0.4-1.1,0.4-1.2,0.4c-5.8,2.7-11.5,5.4-16.5,7.7l-0.9,0.4c-1.2,0.6-2.3,1.1-3.3,1.6c-2.1,1-3.9,1.8-5.6,2.9
	c-0.7,0.4-1.4,0.8-2.1,1.2c-3.7,2.1-7.5,4.3-11,7c-4.5,3.4-9.3,7.1-14,11.7l-3.6,3.2c-3.4-3.4-10.8-9.5-14.3-11.8
	c-2.7-1.8-6-3.8-9.2-5.7c-2.5-1.5-5.1-3.1-7.3-4.5c1.7-3,8.1-13.7,13.6-16.5c0,0,6-2.6,22.8-2.6L394.1,328.1L394.1,328.1
	L394.1,328.1z M333.4,333.2l1.4-0.1c9.4-0.7,17.8-1.4,26.1-2c-2.6,2.2-4.1,4.4-6.4,7.6c-0.9,1.3-1.9,2.8-3.2,4.5
	c-0.4-0.2-1.1-0.6-1.5-0.9c-0.5-0.3-1-0.6-1.4-0.8C343.4,338.7,338.3,335.9,333.4,333.2L333.4,333.2z M322.7,412.1
	c0.3-0.6,0.9-1.4,1.2-1.8c0.2-0.3,0.3-0.5,0.5-0.7c1.7-2.7,3.6-5.4,5.3-8.1c3.5-5.2,7.1-10.6,10.2-16.1c2.4-4.3,4.3-9,6.2-13.5
	c0.9-2.2,1.8-4.4,2.7-6.5c1.5-3.3,3.3-7.5,5.7-12.6c0.2,0.1,0.4,0.2,0.5,0.3c0.1,0.1,0.2,0.2,0.3,0.2c1.5,0.8,2.5,1.6,3.7,2.4
	c0.8,0.5,1.6,1.1,2.6,1.7c0.4,0.3,0.8,0.5,1.2,0.7c2,1.3,4.1,2.6,6,4.2c4.3,3.5,8.4,7.2,12.2,10.6c0.3,0.3,1.1,1,1.7,1.6
	c-0.6,0.6-1.3,1.3-2,2c-2.3,2.3-4.8,4.9-7,6.7c-1,0.8-1.9,1.6-2.9,2.4c-4.8,4.1-9.8,8.3-15.1,11.8c-4.1,2.7-8.7,4.7-13.2,6.7
	c-1.3,0.6-2.5,1.1-3.8,1.7c-4.4,2-9.1,3.8-13.6,5.6H325C324.2,411.7,323.3,412,322.7,412.1L322.7,412.1z"/>
</svg>
