<svg id="Layer_1" data-name="Layer 1" xmlns="http://www.w3.org/2000/svg" viewBox="0 0 1024 1024"><defs><style>.cls-1{fill:#666;}.cls-2{fill:#e6e6e6;}.cls-3{fill:#d61a00;}</style></defs><title>logo-safari-pinned-tab</title><path class="cls-1" d="M293.22,196.73c-8.29,28.45-23.31,59.7-49.94,74.78-12.13,6.87-25.52,11.15-38.8,15.38l-24.42,7.8c-.39,1.73,2,2.55,3.82,2.6l57.62,1.55s46.42-1,56.24,9.5"/><path class="cls-1" d="M809.09,740.68c-58.16-10.81-302.7-61.56-389.32-235.92-16.88-34.07-49.59-100.69-21.44-163.87,37.2-83.48,149.25-119.37,227-69.9,48.19,30.66,74.95,90.16,94,141.83,30.47,82.71,56.85,168.35,75.36,254.53C799.9,691.71,804.64,716.17,809.09,740.68Z"/><path class="cls-2" d="M844,961.94a55.41,55.41,0,0,0-.78-7.51C832.4,883.09,822,811.67,809.09,740.68c-58.16-10.81-302.7-61.56-389.32-235.92-16.88-34.07-49.59-100.69-21.44-163.87,33.8-75.88,124.32-107.21,189.2-87.78,18.35,5.48,32,12.28,42.87,19.81-1.3-28.43-8.52-72.05-19.5-109.17-31.51,18.4-73,29.6-118.45,29.6-86.1,0-157.94-40.08-174.68-93.39a135,135,0,0,0-7.53,11.65c-24.84,43.21-18.05,101.1-15.6,148.78,2.65,51.43,9.53,102.31,14.36,153.54,5.66,60,5.14,119.86,26.24,177.23,18.87,51.3,50.28,97.58,88.52,136.42C488.2,793,573.14,843.1,660.06,872.08c11,3.67,22.41,7.15,31.44,14.44C702,895,708.08,907.64,715,919.26c11.63,19.58,26.75,37.54,46.13,49.49s43.38,17.44,65.46,11.82C833,979,839.65,975.94,842.48,970A18,18,0,0,0,844,961.94Z"/><path class="cls-3" d="M492.45,193.35c45.47,0,86.94-11.2,118.45-29.6-7-23.51-15.55-46.14-31.23-65.25a150.66,150.66,0,0,0-74.55-49.07c-49.21-14.3-108.41-10.8-152.23,17.4a130,130,0,0,0-34.31,32l-.81,1.1C334.51,153.27,406.35,193.35,492.45,193.35Z"/></svg>